<svg xmlns="http://www.w3.org/2000/svg" xmlns:xlink="http://www.w3.org/1999/xlink" viewBox="0 0 512 512"><defs><linearGradient id="a" x1="256" y1="512" x2="256" gradientUnits="userSpaceOnUse"><stop offset="0" stop-color="#d3ad62"/><stop offset="0.999" stop-color="#f4d48b"/></linearGradient></defs><circle cx="256" cy="256" r="256" fill="url(#a)"/><path d="M103.6,309.062c2.006-2.6,3.186-8.968,3.186-14.513a27.71,27.71,0,0,0-.118-3.186l-.826-7.08H87.085l-3.186,7.08a35.63,35.63,0,0,0-3.186,13.688,9.4,9.4,0,0,0,.708,4.011H66.2c4.72-4.483,8.26-10.5,12.154-18.289l28.909-59h7.08l8.968,59c1.062,7.2,2.359,13.451,5.427,18.289Zm1.888-28.79-3.186-29.145L88.973,280.272Z"/><path d="M187.5,260.094a27.378,27.378,0,0,1-.472,5.192l-4.011,24.071a62.147,62.147,0,0,0-1.062,10.737,47.837,47.837,0,0,0,.825,8.968H166.733v-1.416a95.31,95.31,0,0,1,1.652-17.935l3.658-22.183a22.251,22.251,0,0,0,.354-3.54c0-4.012-1.652-5.664-5.192-5.664-2.36,0-5.664,1.062-9.2,4.6l-4.956,28.909a61.876,61.876,0,0,0-1.062,9.912,23.362,23.362,0,0,0,1.062,7.315H132.868c3.54-6.254,4.484-10.619,5.664-17.227l3.3-19.941a59.529,59.529,0,0,0,1.18-10.384,20.368,20.368,0,0,0-.944-6.372c5.31-2.124,10.738-4.365,15.811-6.725a23.976,23.976,0,0,1,.944,6.844c0,1.533-.118,3.067-.236,4.365,5.074-7.551,11.918-10.973,18.408-10.973C183.725,248.649,187.5,252.425,187.5,260.094Z"/><path d="M194.582,292.543,198,272.13a82.353,82.353,0,0,0,1.18-10.384,20.832,20.832,0,0,0-.944-6.608,147.245,147.245,0,0,0,18.29-6.607l-7.316,44.13a50,50,0,0,0-1.062,8.849,40.9,40.9,0,0,0,.944,7.552H189.153A45.954,45.954,0,0,0,194.582,292.543Zm6.961-55.93A11.306,11.306,0,0,1,212.871,225.4c5.191,0,8.378,3.3,8.378,7.905A11.311,11.311,0,0,1,209.8,244.4C204.611,244.4,201.543,240.979,201.543,236.613Z"/><path d="M300.542,260.094a27.3,27.3,0,0,1-.472,5.192l-4.13,24.071A64.693,64.693,0,0,0,295,299.976a48.187,48.187,0,0,0,.826,9.086H279.657a18,18,0,0,1-.118-2.124,112.181,112.181,0,0,1,1.77-17.344l3.776-22.066a20.466,20.466,0,0,0,.235-3.54c0-4.012-1.533-5.664-5.073-5.664-2.478,0-5.664,1.062-9.322,4.72l-.354,2.242-4.011,24.071a66.181,66.181,0,0,0-.945,10.856,57.171,57.171,0,0,0,.708,8.849h-17.7l6.962-41.534a22.352,22.352,0,0,0,.353-3.54c0-4.012-1.652-5.664-5.191-5.664-2.36,0-5.664,1.062-9.2,4.6l-4.956,28.909a61.876,61.876,0,0,0-1.062,9.912,23.362,23.362,0,0,0,1.062,7.315H216.411c3.54-6.254,4.6-10.619,5.664-17.227l3.3-19.941a59.529,59.529,0,0,0,1.18-10.384,20.368,20.368,0,0,0-.944-6.372c5.31-2.124,10.738-4.365,15.811-6.725a23.976,23.976,0,0,1,.944,6.844c0,1.533-.118,3.067-.236,4.365,5.074-7.551,11.918-10.973,18.407-10.973,6.727,0,10.5,3.776,10.5,11.445v.236c5.192-8.024,12.271-11.681,18.88-11.681C296.648,248.649,300.542,252.425,300.542,260.094Z"/><path d="M354.352,265.522a28.585,28.585,0,0,1-.473,5.31l-1.415,8.614H321.431a22.547,22.547,0,0,0-.119,2.832c0,9.793,4.13,15.457,15.222,15.457a25.765,25.765,0,0,0,13.1-3.54A24.366,24.366,0,0,1,326.5,310.6c-12.625,0-20.531-8.967-20.531-23.127,0-19.941,12.626-38.938,31.387-38.938C349.4,248.531,354.352,255.846,354.352,265.522Zm-14.514-2.95c0-6.253-2.124-8.85-5.664-8.85-6.962,0-11.092,12.154-12.39,22.184h12.153c3.777,0,4.367-.472,5.193-5.9A48.464,48.464,0,0,0,339.838,262.572Z"/><path d="M400.488,249.239l-5.9,20.649c-3.895-7.552-6.844-9.558-9.441-9.558-4.365,0-6.135,5.428-7.905,15.694l-2.6,15.221a59.141,59.141,0,0,0-1.062,9.794,40.988,40.988,0,0,0,.944,8.023H354.352c3.658-6.843,4.719-11.445,5.782-17.817l2.832-16.873a62.021,62.021,0,0,0,.825-9.086,24.282,24.282,0,0,0-1.888-9.912,161.847,161.847,0,0,0,15.93-6.961c1.416,2.36,1.77,7.669,1.77,11.209v1.534c4.248-10.029,9.2-12.507,15.929-12.507A21.13,21.13,0,0,1,400.488,249.239Z"/><path d="M445.8,265.522a28.5,28.5,0,0,1-.473,5.31l-1.415,8.614H412.88a22.737,22.737,0,0,0-.118,2.832c0,9.793,4.13,15.457,15.221,15.457a25.765,25.765,0,0,0,13.1-3.54,24.365,24.365,0,0,1-23.128,16.4c-12.625,0-20.531-8.967-20.531-23.127,0-19.941,12.626-38.938,31.388-38.938C440.845,248.531,445.8,255.846,445.8,265.522Zm-14.514-2.95c0-6.253-2.124-8.85-5.664-8.85-6.962,0-11.092,12.154-12.39,22.184h12.154c3.776,0,4.366-.472,5.192-5.9A48.464,48.464,0,0,0,431.287,262.572Z"/><path d="M246.928,187.939a28.077,28.077,0,0,0-4.715,3.19,69.062,69.062,0,0,0-5.905,5.586l-3.162,3.332-1.639,1.7c-.563.578-1.119,1.159-1.676,1.757a92.169,92.169,0,0,0-6.226,7.438,82.713,82.713,0,0,0-4.914,7.311c-.318.532-.618,1.051-.9,1.552-.326-.609-.724-1.344-1.183-2.171-3.06-5.51-7.25-10.005-10.8-15.211,2.515,4.177,5.357,8.472,7.526,12.781a26.061,26.061,0,0,1,2.672,6.224c.434,2.114-1.382,3.991-2.1,6.011-.376,1.079-1.963,3.711-1.127,4.815.548.718,2.315.42,3.049.186,1.948-.629,3.132-2.952,3.692-4.749a58.46,58.46,0,0,1,3.181-7.295c1.072-2.281,2.4-4.812,3.952-7.4a91.374,91.374,0,0,1,5.245-7.76c.472-.632.959-1.265,1.439-1.874l1.47-1.887,2.783-3.64a69.686,69.686,0,0,1,5.184-6.08,28.07,28.07,0,0,1,4.267-3.612,17.393,17.393,0,0,1,1.83-1.08A15.776,15.776,0,0,0,246.928,187.939Z"/><path d="M183.3,171.009c-.36,4.107.125,12.4,1.371,16.32,2.74,8.606,5.6,14.125,11.775,20.723,4.446,4.742,14.259,7.186,17.455,3.548s3.473-8.759,3.221-11.879c-.556-7.066-6.028-14.679-11.319-19.082C196.05,172.551,187.823,173.655,183.3,171.009Z"/><path d="M323.368,174.4c-7.633-12.828-19.769-22.478-34.542-25.371-18.614-3.657-41.606.466-54.856,14.98-10.725,11.751-11.147,30.043,2.347,39.911,20.872,15.262,42.726-4.387,58.751-17.771C303.712,178.928,318.13,175.285,323.368,174.4Z"/></svg>