<svg xmlns="http://www.w3.org/2000/svg" viewBox="0 0 512 512"><defs><linearGradient id="a" x1="256" y1="512" x2="256" gradientUnits="userSpaceOnUse"><stop offset="0" stop-color="#ba554c"/><stop offset="1" stop-color="#e57066"/></linearGradient><style>.b{fill:#28292b}</style></defs><circle cx="256" cy="256" r="256" fill="url(#a)"/><path class="b" d="M103.6 309.06c2-2.59 3.19-9 3.19-14.51a27.39 27.39 0 00-.12-3.19l-.82-7.08H87.08l-3.18 7.08a35.6 35.6 0 00-3.19 13.69 9.42 9.42 0 00.71 4H66.2c4.72-4.48 8.26-10.5 12.15-18.29l28.91-59h7.08l9 59c1.06 7.2 2.36 13.45 5.43 18.29zm1.89-28.79l-3.18-29.14L89 280.27zM187.5 260.09a27.74 27.74 0 01-.47 5.2l-4 24.07a62 62 0 00-1.03 10.73 47.85 47.85 0 00.83 9h-16.1v-1.41a96 96 0 011.65-17.94l3.62-22.21a22 22 0 00.36-3.54c0-4-1.66-5.67-5.19-5.67-2.36 0-5.67 1.07-9.21 4.61l-4.95 28.9a61.89 61.89 0 00-1.07 9.92 23.21 23.21 0 001.07 7.31h-20.14c3.54-6.25 4.48-10.62 5.66-17.23l3.31-19.94a60.21 60.21 0 001.16-10.38 20.31 20.31 0 00-1-6.37c5.31-2.13 10.74-4.37 15.81-6.73a24 24 0 011 6.85c0 1.53-.12 3.06-.24 4.36 5.08-7.55 11.92-11 18.41-11 6.74.03 10.52 3.8 10.52 11.47zM194.58 292.54l3.42-20.41a80.92 80.92 0 001.18-10.38 20.74 20.74 0 00-.94-6.61 148.59 148.59 0 0018.29-6.61l-7.32 44.13a50 50 0 00-1.06 8.85 40.9 40.9 0 00.94 7.55h-19.94a45.92 45.92 0 005.43-16.52zm7-55.93a11.31 11.31 0 0111.33-11.21c5.19 0 8.38 3.31 8.38 7.91a11.31 11.31 0 01-11.49 11.09c-5.19 0-8.26-3.4-8.26-7.79zM300.54 260.09a27.74 27.74 0 01-.47 5.2l-4.13 24.07A64.58 64.58 0 00295 300a48.13 48.13 0 00.82 9.08h-16.16a17.67 17.67 0 01-.12-2.12 111.59 111.59 0 011.77-17.35l3.77-22.06a20.09 20.09 0 00.24-3.54c0-4-1.53-5.67-5.07-5.67-2.48 0-5.67 1.07-9.33 4.72l-.35 2.25-4 24.07a66.21 66.21 0 00-.94 10.85 57.3 57.3 0 00.7 8.85h-17.7l7-41.53a23 23 0 00.35-3.54c0-4-1.65-5.67-5.19-5.67-2.36 0-5.67 1.07-9.21 4.61l-4.95 28.9a61.82 61.82 0 00-1.06 9.92 23.19 23.19 0 001.06 7.31h-20.22c3.54-6.25 4.6-10.62 5.66-17.23l3.31-19.94a59.23 59.23 0 001.18-10.38 20.31 20.31 0 00-.95-6.37c5.31-2.13 10.74-4.37 15.82-6.73a24 24 0 01.94 6.85c0 1.53-.12 3.06-.24 4.36 5.08-7.55 11.92-11 18.41-11 6.73 0 10.5 3.77 10.5 11.44v.24c5.2-8 12.27-11.68 18.88-11.68s10.62 3.78 10.62 11.45zM354.35 265.52a29 29 0 01-.47 5.31l-1.42 8.62h-31a22.25 22.25 0 00-.12 2.83c0 9.79 4.13 15.46 15.22 15.46a25.8 25.8 0 0013.1-3.54 24.37 24.37 0 01-23.13 16.4c-12.62 0-20.53-9-20.53-23.13 0-19.94 12.63-38.94 31.39-38.94 12.01 0 16.96 7.32 16.96 16.99zm-14.51-2.95c0-6.25-2.13-8.85-5.67-8.85-7 0-11.09 12.16-12.39 22.19h12.16c3.77 0 4.36-.48 5.19-5.9a48.78 48.78 0 00.71-7.44zM400.49 249.24l-5.9 20.65c-3.9-7.55-6.84-9.56-9.44-9.56-4.37 0-6.14 5.43-7.91 15.69l-2.59 15.22a59.1 59.1 0 00-1.07 9.8 41 41 0 00.95 8h-20.18c3.66-6.84 4.72-11.44 5.78-17.82l2.87-16.85a62.1 62.1 0 00.82-9.08 24.25 24.25 0 00-1.89-9.92 159.49 159.49 0 0015.93-7c1.42 2.36 1.77 7.67 1.77 11.21v1.54c4.25-10 9.21-12.51 15.93-12.51a20.88 20.88 0 014.93.63zM445.8 265.52a29 29 0 01-.47 5.31l-1.42 8.62h-31a22.25 22.25 0 00-.12 2.83c0 9.79 4.13 15.46 15.22 15.46a25.8 25.8 0 0013.1-3.54A24.37 24.37 0 01418 310.6c-12.62 0-20.53-9-20.53-23.13 0-19.94 12.63-38.94 31.39-38.94 11.98 0 16.94 7.32 16.94 16.99zm-14.51-2.95c0-6.25-2.13-8.85-5.67-8.85-7 0-11.09 12.16-12.39 22.19h12.16c3.77 0 4.36-.48 5.19-5.9a48.78 48.78 0 00.71-7.44z"/><path class="b" d="M246.93 187.94a27.69 27.69 0 00-4.72 3.19 68.54 68.54 0 00-5.9 5.59l-3.16 3.33-1.64 1.7c-.57.57-1.12 1.16-1.68 1.75a91.46 91.46 0 00-6.22 7.44 83.06 83.06 0 00-4.92 7.31c-.32.53-.62 1.05-.9 1.55-.32-.6-.72-1.34-1.18-2.17-3.06-5.51-7.25-10-10.8-15.21 2.51 4.18 5.36 8.47 7.53 12.78a26 26 0 012.67 6.23c.43 2.11-1.38 4-2.1 6-.38 1.08-2 3.71-1.13 4.81.55.72 2.32.42 3.05.19 1.95-.63 3.13-2.95 3.69-4.75a59.69 59.69 0 013.18-7.3c1.08-2.28 2.4-4.81 4-7.4a93.58 93.58 0 015.24-7.76c.47-.63 1-1.26 1.44-1.87l1.47-1.89 2.78-3.64a71.27 71.27 0 015.19-6.08 28.69 28.69 0 014.26-3.61 16.78 16.78 0 011.84-1.08 15.42 15.42 0 00-1.99.89z"/><path class="b" d="M183.3 171c-.36 4.11.12 12.4 1.37 16.32 2.74 8.6 5.6 14.12 11.77 20.72 4.45 4.74 14.26 7.19 17.46 3.55s3.47-8.76 3.22-11.88c-.56-7.07-6-14.68-11.32-19.08-9.75-8.08-17.98-6.98-22.5-9.63zM323.37 174.4c-7.63-12.83-19.77-22.48-34.54-25.37-18.62-3.66-41.61.47-54.86 15-10.72 11.75-11.15 30 2.35 39.91 20.87 15.26 42.72-4.39 58.75-17.77 8.64-7.24 23.06-10.88 28.3-11.77z"/></svg>
